<svg xmlns="http://www.w3.org/2000/svg" viewBox="0 0 48 48"><path fill="#e24329" d="m24 40 8.2-25.1H15.8L24 40Z"/><path fill="#fc6d26" d="M7.2 14.9 24 40l-8.2-25.1H7.2Z"/><path fill="#fca326" d="M7.2 14.9 4.7 22.5c-.3.9 0 1.8.8 2.4L24 40 7.2 14.9Z"/><path fill="#fc6d26" d="M40.8 14.9 24 40l8.2-25.1h8.6Z"/><path fill="#fca326" d="m40.8 14.9 2.5 7.6c.3.9 0 1.8-.8 2.4L24 40l16.8-25.1Z"/><path fill="#e24329" d="M15.8 14.9h16.4L29.8 7.5c-.3-1-1.7-1-2 0L24 19.2 20.2 7.5c-.3-1-1.7-1-2 0l-2.4 7.4Z"/></svg>
