<svg xmlns="http://www.w3.org/2000/svg" viewBox="0 0 48 48"><path fill="#ee0000" d="M9 18c4.6-5.2 9.6-7.8 15-7.8s10.4 2.6 15 7.8c-2.4 3.9-6 6.4-10.4 7.5l-4.6 4.6-4.6-4.6C15 24.4 11.4 21.9 9 18Z"/><path fill="#111827" d="M16 15.5 17.7 7h12.6l1.7 8.5c-2.4-1-5-1.6-8-1.6s-5.6.6-8 1.6Z"/><path fill="#ffffff" d="M16 18c2.4 1.8 5.1 2.7 8 2.7s5.6-.9 8-2.7c-2.6-1.5-5.2-2.2-8-2.2s-5.4.7-8 2.2Z" opacity=".9"/><path fill="none" stroke="#111827" stroke-width="3" stroke-linecap="round" d="M18 34c4.4.7 8.4 2.7 12 6"/><path fill="none" stroke="#111827" stroke-width="3" stroke-linecap="round" d="M22 30c4.6.9 8.6 3.2 12 7"/></svg>
